<?xml version="1.0" standalone="no"?>
<!DOCTYPE svg PUBLIC "-//W3C//DTD SVG 20010904//EN"
 "http://www.w3.org/TR/2001/REC-SVG-20010904/DTD/svg10.dtd">
<svg version="1.0" xmlns="http://www.w3.org/2000/svg"
 width="354.000000pt" height="354.000000pt" viewBox="0 0 354.000000 354.000000"
 preserveAspectRatio="xMidYMid meet">

<g transform="translate(0.000000,354.000000) scale(0.100000,-0.100000)"
fill="#000000" stroke="none">
<path d="M1763 3263 c-13 -2 -23 -9 -23 -14 0 -6 -5 -7 -10 -4 -6 4 -10 3 -9
-2 1 -4 -5 -25 -14 -45 -30 -66 -18 -109 38 -146 129 -83 275 78 166 182 -28
27 -97 41 -148 29z m90 -82 c14 -14 4 -63 -15 -75 -38 -23 -78 43 -48 79 12
14 47 12 63 -4z"/>
<path d="M1515 3241 c-16 -3 -30 -8 -29 -11 2 -11 16 -128 19 -160 l4 -35 -55
60 c-29 33 -52 65 -49 72 2 7 -2 10 -11 6 -8 -3 -14 1 -14 10 0 22 -20 26 -60
12 l-35 -12 -14 -117 -14 -118 -23 49 c-28 56 -28 56 -12 47 7 -4 8 -3 4 5 -4
6 -11 9 -16 6 -4 -3 -13 7 -18 23 -6 15 -16 35 -24 45 -13 17 -16 17 -58 -7
-25 -14 -39 -26 -33 -26 7 0 19 -13 27 -29 14 -27 14 -29 -11 -42 -20 -11 -27
-11 -30 -2 -3 7 -3 14 -2 15 2 2 -5 13 -15 24 l-19 22 -33 -20 c-39 -23 -38
-20 -19 -59 9 -16 13 -35 9 -41 -4 -6 -3 -8 3 -5 6 4 24 -23 42 -59 25 -51 35
-63 45 -55 7 6 16 8 19 4 4 -3 7 -2 7 4 0 6 9 13 20 16 19 5 19 5 0 43 -17 36
-17 39 -2 45 33 13 37 11 53 -17 9 -16 23 -27 30 -25 8 3 24 5 36 5 11 1 19 4
17 8 -2 3 16 14 40 23 31 12 46 24 48 39 2 15 10 21 30 21 14 -1 24 3 22 7 -8
13 10 9 31 -5 15 -11 30 -12 84 -1 36 7 93 16 126 21 57 8 59 9 59 38 0 30 -1
30 -53 27 -34 -2 -50 1 -46 8 3 5 1 10 -4 10 -6 0 -12 17 -12 38 -2 52 -12 95
-24 97 -5 2 -23 0 -40 -4z m-147 -159 c6 -18 -15 -14 -22 4 -4 10 -1 14 6 12
6 -2 14 -10 16 -16z"/>
<path d="M1990 3193 c-7 -32 -15 -62 -18 -67 -3 -6 -7 -19 -8 -30 -1 -12 -4
-31 -7 -43 -5 -18 0 -22 30 -28 41 -7 52 0 55 38 3 35 6 34 24 -8 16 -40 47
-47 64 -15 13 24 27 26 27 5 0 -8 -4 -15 -8 -15 -18 0 6 -41 27 -46 40 -10 48
0 68 87 10 46 20 93 23 105 3 15 -3 23 -22 32 -24 11 -30 9 -78 -37 l-52 -50
-18 42 c-9 23 -17 48 -17 54 0 15 -32 33 -59 33 -16 0 -22 -11 -31 -57z"/>
<path d="M770 3180 c-9 -6 -10 -10 -3 -10 6 0 15 5 18 10 8 12 4 12 -15 0z"/>
<path d="M2395 3114 c-9 -14 -15 -27 -13 -28 2 -1 15 -8 30 -15 l27 -14 -35
-70 c-34 -66 -35 -70 -17 -86 38 -34 56 -25 92 49 29 60 36 68 52 60 29 -16
45 -12 57 15 9 18 8 26 -1 32 -15 9 -167 83 -172 83 -1 0 -10 -12 -20 -26z"/>
<path d="M870 2979 c-73 -41 -94 -87 -69 -143 13 -28 40 -36 82 -25 15 4 27 4
27 -2 0 -5 -11 -11 -25 -15 -14 -3 -25 -7 -25 -9 0 -1 5 -16 11 -34 9 -26 15
-30 33 -25 66 20 126 77 126 119 0 53 -65 85 -117 57 -12 -7 -27 -12 -34 -12
-20 0 9 27 37 34 21 6 23 11 18 34 -12 49 -13 50 -64 21z m70 -154 c-7 -9 -15
-13 -19 -10 -3 3 1 10 9 15 21 14 24 12 10 -5z"/>
<path d="M2610 2984 c-48 -20 -70 -51 -70 -100 0 -49 18 -89 48 -105 12 -7 22
-16 22 -21 0 -5 27 -8 60 -7 33 1 60 5 60 9 0 4 12 12 26 18 14 7 22 17 19 22
-3 6 -2 10 3 10 6 0 10 23 9 52 0 59 -25 95 -82 122 -40 19 -50 19 -95 0z m88
-77 c27 -18 -7 -87 -44 -87 -29 0 -43 53 -22 85 8 13 47 13 66 2z"/>
<path d="M459 2933 c-13 -16 -12 -17 4 -4 16 13 21 21 13 21 -2 0 -10 -8 -17
-17z"/>
<path d="M2811 2804 c-84 -91 -89 -122 -30 -189 27 -30 37 -35 76 -35 39 0 50
5 97 50 29 27 56 48 59 45 4 -3 5 -2 2 1 -2 4 0 15 6 25 5 11 6 18 2 17 -5 -2
-19 7 -33 20 l-24 22 -57 -56 c-52 -51 -57 -54 -73 -39 -9 9 -16 19 -16 21 0
3 23 30 52 60 l52 55 -30 30 -30 30 -53 -57z"/>
<path d="M621 2767 c-24 -26 -20 -51 10 -68 11 -6 17 -15 13 -22 -4 -7 -3 -9
1 -4 5 4 33 -16 62 -45 l53 -52 30 29 30 29 -55 56 c-31 31 -53 59 -50 63 3 4
2 5 -1 2 -4 -2 -18 5 -32 15 -31 25 -34 25 -61 -3z"/>
<path d="M541 2678 c-16 -25 -23 -80 -9 -72 4 3 8 -4 8 -15 0 -11 4 -22 9 -25
5 -3 11 -14 13 -24 5 -16 0 -17 -49 -12 -35 4 -63 2 -78 -6 -13 -7 -25 -11
-27 -9 -2 2 -4 -8 -4 -21 -1 -13 2 -24 8 -24 5 0 6 -5 2 -12 -4 -6 -3 -8 3 -5
10 6 89 -48 126 -85 16 -16 10 -16 -93 -12 -105 4 -109 4 -122 -18 -7 -13 -12
-26 -13 -30 0 -3 -3 -9 -7 -13 -7 -8 -6 -9 57 -79 22 -24 52 -58 67 -75 35
-39 42 -39 58 0 10 24 11 36 2 50 -9 15 -8 26 5 53 14 30 20 34 45 31 22 -3
28 0 24 10 -2 7 10 38 28 68 l34 55 -37 26 c-34 25 -29 36 8 16 25 -13 56 11
56 44 1 13 -2 23 -6 20 -4 -2 -9 5 -12 16 -4 16 -2 17 14 7 10 -6 19 -15 19
-19 0 -17 33 -7 51 15 26 31 24 40 -16 61 -19 10 -32 23 -29 27 3 5 0 9 -7 9
-6 0 -33 16 -59 35 -26 19 -49 35 -51 35 -2 0 -11 -10 -18 -22z m-101 -402 c0
-3 -4 -8 -10 -11 -5 -3 -10 -1 -10 4 0 6 5 11 10 11 6 0 10 -2 10 -4z"/>
<path d="M1744 2648 c-11 -13 -40 -53 -64 -90 -25 -36 -48 -64 -53 -61 -4 2
-6 1 -5 -4 4 -11 -34 -73 -45 -73 -4 0 -5 -5 -1 -12 5 -8 2 -9 -10 -5 -10 4
-15 3 -11 -3 3 -5 -8 -35 -25 -66 -16 -31 -30 -63 -30 -71 0 -8 -5 -11 -12 -7
-7 4 -8 3 -4 -5 4 -7 -26 -47 -76 -100 -81 -88 -83 -89 -101 -70 -25 27 -60
24 -95 -8 -16 -16 -51 -48 -79 -73 -27 -25 -60 -67 -73 -92 -13 -26 -54 -79
-92 -118 -67 -67 -96 -80 -85 -38 3 11 3 17 0 14 -3 -3 -14 -1 -25 5 -30 16
-61 3 -86 -36 -16 -25 -29 -35 -47 -35 -17 0 -41 -15 -67 -41 -31 -31 -46 -39
-62 -34 -50 16 -77 12 -106 -15 -16 -15 -32 -25 -35 -21 -4 3 -5 2 -4 -4 2 -5
-3 -21 -11 -35 -8 -14 -19 -43 -25 -65 -6 -22 -16 -39 -22 -38 -6 1 -20 -19
-31 -46 -15 -36 -17 -53 -9 -67 15 -28 24 -31 65 -25 29 5 37 11 37 28 0 23
41 73 60 73 12 0 35 -55 35 -83 0 -13 10 -17 45 -17 47 0 57 15 36 49 -13 20
-2 41 20 41 21 0 25 -21 8 -52 -6 -11 -8 -23 -4 -26 4 -4 232 -7 508 -7 l502
0 -1 -23 c-1 -22 2 -23 35 -18 20 3 41 7 48 8 7 1 10 4 8 8 -3 4 4 15 14 24
16 15 20 15 33 2 8 -8 21 -35 28 -59 l12 -46 120 2 120 2 15 45 c8 25 19 49
23 53 4 5 202 8 440 8 314 -1 436 2 446 10 18 15 18 111 -1 164 -19 53 -19 85
1 85 9 0 12 -5 8 -12 -4 -7 -3 -8 5 -4 6 4 9 11 6 16 -3 5 3 15 14 22 17 12
18 16 3 63 -24 83 -42 116 -68 125 -29 11 -57 -2 -75 -37 -7 -13 -28 -27 -47
-33 -19 -5 -45 -18 -57 -30 l-22 -20 -52 67 c-28 38 -96 113 -149 168 -54 55
-122 132 -152 170 -161 208 -234 295 -272 319 -34 22 -60 10 -86 -40 l-18 -35
-28 60 c-15 34 -32 61 -36 61 -5 0 -26 28 -48 63 -48 75 -132 167 -153 167 -9
0 -24 -10 -35 -22z m53 -35 c7 -10 23 -36 35 -58 11 -22 45 -64 74 -93 36 -36
58 -68 65 -95 8 -27 29 -59 58 -88 32 -32 67 -87 114 -180 63 -125 76 -159 61
-159 -10 0 -62 60 -103 120 -21 30 -60 79 -86 108 -46 51 -50 53 -94 50 -35
-2 -45 0 -43 11 10 46 4 83 -18 106 -27 29 -40 24 -40 -14 0 -16 -6 -34 -14
-41 -12 -9 -17 -4 -26 32 -22 89 -22 89 -74 33 -26 -27 -63 -83 -84 -124 -31
-62 -47 -82 -97 -117 -82 -59 -146 -95 -156 -89 -18 12 12 54 129 183 24 27
47 64 52 87 6 22 15 51 21 65 16 36 192 280 203 280 5 0 15 -8 23 -17z m384
-295 c23 -24 63 -70 88 -103 98 -130 170 -213 257 -300 96 -95 144 -153 188
-223 l27 -43 -78 58 c-135 98 -216 170 -272 237 -30 36 -63 66 -75 68 -20 3
-23 8 -46 95 -9 37 -95 152 -119 161 -4 1 -14 -10 -21 -25 -11 -24 -14 -25
-18 -9 -6 27 8 126 18 126 4 0 27 -19 51 -42z m-885 -300 c21 -29 56 -79 77
-110 21 -31 69 -90 106 -130 53 -57 70 -82 75 -114 4 -23 28 -70 57 -113 27
-40 49 -77 49 -83 0 -27 -108 85 -141 147 -20 36 -52 80 -72 96 -19 16 -52 53
-73 82 -42 59 -94 117 -105 117 -11 0 -113 -71 -120 -83 -4 -7 -10 -34 -14
-62 -8 -60 -17 -72 -58 -81 -70 -15 -148 -72 -153 -112 -1 -9 -4 -38 -8 -64
-4 -34 -1 -49 9 -58 21 -17 19 -37 -6 -50 -26 -14 -29 -11 -41 42 -19 86 -21
128 -6 128 8 0 23 9 33 20 15 17 16 24 7 46 -21 44 -13 59 59 119 52 42 78 72
95 109 13 28 24 56 24 62 0 15 148 144 165 144 2 0 20 -24 41 -52z m708 -171
c-7 -18 -64 -57 -84 -57 -18 0 16 37 55 61 32 20 38 19 29 -4z m409 -199 l126
-177 -26 -16 c-14 -10 -28 -13 -32 -8 -3 5 -17 27 -31 49 -18 29 -26 35 -28
22 -4 -22 -2 -22 -41 -2 -31 15 -33 19 -28 58 3 29 -2 51 -15 73 -11 18 -17
37 -14 42 3 5 -12 40 -34 77 -44 75 -54 113 -21 79 11 -11 75 -100 144 -197z
m-647 85 c12 -32 24 -65 28 -73 4 -11 -7 -21 -39 -37 -29 -14 -45 -18 -45 -10
0 7 -14 41 -30 75 -17 35 -30 66 -30 68 0 7 63 33 80 34 9 0 23 -22 36 -57z
m235 43 c5 3 9 0 9 -5 0 -6 -4 -11 -8 -11 -4 0 -8 -9 -8 -19 0 -11 4 -17 9
-14 4 3 6 -15 4 -39 l-4 -43 -46 -2 -47 -2 0 54 c0 53 1 55 38 73 20 10 39 14
40 10 2 -5 8 -6 13 -2z m-14 -162 c20 -6 22 -11 20 -92 l-2 -87 -41 -3 c-49
-4 -54 6 -54 110 0 55 3 67 18 71 26 7 35 7 59 1z m-173 -27 c-1 -9 2 -14 7
-11 5 3 9 3 9 0 0 -2 3 -12 7 -22 5 -13 3 -15 -8 -9 -8 5 -4 -3 9 -17 12 -13
22 -31 22 -39 0 -8 5 -20 11 -26 8 -8 5 -14 -11 -23 -18 -10 -25 -8 -44 9 -12
12 -27 21 -32 21 -9 0 -54 86 -54 102 0 11 53 38 70 35 8 -2 14 -10 14 -20z
m365 -2 c13 -13 12 -17 -5 -36 -10 -13 -14 -19 -7 -15 8 4 7 -2 -2 -21 -8 -15
-15 -36 -15 -46 0 -11 -4 -15 -12 -11 -8 5 -9 2 -5 -10 4 -9 3 -15 -2 -11 -5
3 -11 0 -13 -6 -3 -8 -15 -7 -41 6 l-36 17 18 36 c10 21 25 57 32 80 12 42 14
43 43 38 17 -4 37 -13 45 -21z m729 -175 c11 -32 10 -33 -3 -16 -8 11 -15 29
-15 40 0 25 4 19 18 -24z m-2128 -12 c0 -5 -4 -8 -10 -8 -5 0 -10 10 -10 23 0
18 2 19 10 7 5 -8 10 -18 10 -22z m1130 -15 c7 -21 21 -53 32 -72 10 -18 18
-35 16 -36 -12 -10 -70 -35 -81 -35 -8 0 -24 26 -38 63 -13 34 -25 65 -27 69
-4 9 58 48 75 48 6 0 17 -17 23 -37z m206 -7 c-3 -6 -16 -38 -30 -71 -14 -33
-29 -61 -35 -63 -14 -5 -25 80 -17 132 l7 44 40 -16 c22 -8 38 -20 35 -26z
m-113 10 c-9 -13 -12 -89 -5 -101 15 -24 10 -41 -10 -42 -19 -2 -20 0 -6 13
14 14 12 21 -13 67 -38 68 -37 78 5 75 20 -1 32 -6 29 -12z"/>
<path d="M2969 2593 c-46 -31 -86 -58 -89 -60 -9 -8 33 -71 51 -76 10 -3 17 0
16 5 -1 6 3 12 10 15 14 5 9 -32 -6 -51 -8 -9 -1 -23 24 -51 19 -21 38 -51 40
-67 8 -46 52 -107 81 -114 38 -10 78 7 82 34 2 13 8 20 14 16 7 -5 8 -2 3 6
-13 22 -23 80 -14 85 4 3 13 -13 20 -35 11 -35 16 -40 41 -40 28 0 29 2 26 42
-2 41 -11 57 -50 100 -24 24 -80 24 -102 -1 -19 -21 -21 -37 -11 -96 6 -38 5
-39 -9 -21 -9 11 -16 32 -16 48 0 24 -4 28 -27 29 -16 1 -31 1 -35 0 -11 -1
-10 4 3 33 10 21 17 24 40 19 23 -4 35 1 60 26 27 27 31 37 26 66 -5 31 -74
145 -88 145 -3 0 -43 -26 -90 -57z m94 -94 c-7 -7 -16 -5 -27 6 -16 16 -16 18
1 31 16 11 19 10 27 -7 6 -12 6 -23 -1 -30z"/>
<path d="M1092 622 c2 -4 -14 -37 -35 -72 l-38 -64 23 -18 c22 -17 24 -17 37
2 17 26 29 25 60 -2 14 -13 23 -19 18 -14 -4 5 0 17 8 27 15 15 14 18 -9 37
-35 27 -33 36 4 17 37 -19 37 -19 50 5 9 17 7 22 -15 30 -14 5 -25 14 -25 20
0 5 -3 9 -7 8 -5 -1 -23 6 -41 15 -18 10 -31 14 -30 9z"/>
<path d="M2479 584 c-15 -7 -33 -23 -41 -36 -13 -20 -13 -28 -1 -55 15 -37 46
-49 85 -34 14 5 29 7 34 3 4 -4 4 -2 1 4 -4 7 -1 14 7 17 18 7 15 35 -5 48
-11 7 -11 9 4 9 16 0 15 3 -5 24 -31 32 -49 36 -79 20z"/>
<path d="M2339 506 c-7 -7 -42 -23 -76 -36 -35 -12 -63 -24 -63 -26 0 -2 12
-28 27 -59 28 -57 38 -63 66 -42 15 11 15 15 2 41 -8 15 -12 33 -8 39 3 5 15
-7 25 -27 13 -26 24 -36 34 -32 9 3 20 6 25 6 14 0 10 33 -6 54 -17 23 -19 36
-5 36 6 0 18 -15 27 -34 14 -31 18 -33 39 -24 29 13 29 15 7 64 -9 22 -16 41
-16 44 3 12 -64 9 -78 -4z"/>
<path d="M1179 486 c-33 -43 1 -116 53 -116 13 0 17 -4 12 -12 -4 -7 2 -5 14
6 12 10 19 23 16 27 -3 5 1 9 9 9 16 0 27 21 27 51 0 45 -103 73 -131 35z"/>
<path d="M1475 446 c-4 -11 -9 -32 -11 -46 -3 -14 -9 -38 -14 -54 -14 -42 -12
-53 10 -59 28 -7 47 15 55 65 4 24 10 48 14 53 16 22 6 49 -21 56 -21 6 -28 3
-33 -15z"/>
<path d="M1312 417 c-12 -33 -4 -64 24 -88 24 -20 79 -20 79 1 0 8 8 18 18 22
25 10 21 45 -8 74 -19 19 -34 24 -63 23 -33 -2 -41 -7 -50 -32z"/>
<path d="M1917 433 c-18 -5 -18 -4 2 -128 6 -35 10 -40 35 -43 27 -3 28 -2 25
36 -5 49 17 53 26 5 5 -30 10 -34 33 -31 25 3 27 6 23 48 -4 58 -25 83 -68 78
-26 -3 -33 0 -35 16 -3 21 -13 26 -41 19z"/>
<path d="M2092 410 c-23 -21 -29 -64 -13 -89 5 -8 29 -17 53 -20 51 -8 74 7
84 56 12 63 -74 99 -124 53z m66 -49 c3 -8 -1 -12 -9 -9 -7 2 -15 10 -17 17
-3 8 1 12 9 9 7 -2 15 -10 17 -17z"/>
<path d="M1740 375 c-12 -32 -15 -34 -22 -16 -4 12 -20 22 -41 26 -55 11 -72
3 -69 -27 1 -15 -2 -29 -8 -33 -14 -9 -13 -40 3 -52 6 -6 36 -13 65 -17 50 -6
52 -6 52 18 0 33 10 57 21 50 5 -3 9 -15 9 -28 0 -12 5 -27 12 -34 12 -12 60
-17 70 -6 10 9 -4 44 -16 44 -7 0 -13 7 -13 15 0 9 6 14 14 11 18 -7 17 41 -1
51 -8 4 -15 13 -15 18 0 6 -11 11 -24 13 -18 2 -26 -4 -37 -33z"/>
<path d="M1389 83 c-12 -16 -12 -17 2 -6 9 7 20 9 24 5 5 -4 5 -1 1 6 -9 16
-11 15 -27 -5z"/>
</g>
</svg>
